<?xml version="1.0" encoding="utf-8"?>
<!-- Generator: Adobe Illustrator 18.0.0, SVG Export Plug-In . SVG Version: 6.00 Build 0)  -->
<!DOCTYPE svg PUBLIC "-//W3C//DTD SVG 1.1//EN" "http://www.w3.org/Graphics/SVG/1.1/DTD/svg11.dtd">
<svg version="1.1" id="Camada_1" xmlns="http://www.w3.org/2000/svg" xmlns:xlink="http://www.w3.org/1999/xlink" x="0px" y="0px"
	 viewBox="0 0 566.9 841.9" enable-background="new 0 0 566.9 841.9" xml:space="preserve">
<g>
	<g>
		<path d="M244.7,197.2c0,0-29.8,8.2-35.8,32.5s-6,24.3-6,24.3L178.4,378c0,0,0.3,43.8,34.8,50.8s57.8-16,57.8-16s9-11.3,11.3-17.8
			s18.8-41,36.5-41.3s40.3,0,40.3,0V199.2L244.7,197.2z"/>
		<path d="M466,197.3c0,0,29.8,8.2,35.8,32.5s6,24.3,6,24.3L532.4,378c0,0-0.3,43.8-34.8,50.8s-57.8-16-57.8-16s-9-11.3-11.3-17.8
			s-18.8-41-36.5-41.3s-40.3,0-40.3,0V199.3L466,197.3z"/>
	</g>
	<path fill="none" stroke="#000000" stroke-width="6.5" stroke-miterlimit="10" d="M346.5,200.2c0,0-81.7-34.1-63.1-53.7
		s80.6-37.1,80.6-37.1s85.8-28.3,9.5-44.8s-89.4-42.1-89.4-42.1"/>
	<g>
		<path fill="#FFFFFF" d="M247.8,196.2c0,0-29.2,7.7-35.1,30.5c-5.9,22.9-5.9,22.9-5.9,22.9l-24,116.5c0,0,0.2,41.1,34,47.7
			s56.5-15,56.5-15s8.8-10.6,11-16.7c2.2-6.1,18.4-38.5,35.7-38.8s39.4,0,39.4,0V198L247.8,196.2z"/>
		<path fill="#FFFFFF" d="M463,196.2c0,0,28.9,7.7,34.7,30.5s5.8,22.9,5.8,22.9l23.8,116.5c0,0-0.2,41.1-33.7,47.7s-56-15-56-15
			s-8.7-10.6-10.9-16.7c-2.2-6.1-18.2-38.5-35.4-38.8s-39,0-39,0V198.1L463,196.2z"/>
	</g>
	<g>
		<rect x="247.2" y="257.1" fill="#BF0411" stroke="#000000" stroke-width="2" stroke-miterlimit="10" width="79.1" height="24.4"/>
		<polygon fill="#BF0411" stroke="#000000" stroke-width="2" stroke-miterlimit="10" points="299.3,229.8 299.3,308.8 274.9,308.8 
			274.9,281.5 274.9,229.8 		"/>
		<rect x="273.3" y="258.1" fill="#BF0411" width="3.1" height="22.4"/>
		<rect x="297.9" y="258.1" fill="#BF0411" width="3.1" height="22.4"/>
	</g>
	<g>
		<circle fill="#3FA1A7" cx="421.5" cy="249.9" r="11.4"/>
		<circle fill="#26335F" cx="397.8" cy="272.4" r="11.4"/>
		<circle fill="#C02C4D" cx="421.8" cy="295.6" r="11.4"/>
		<circle fill="#F2D343" cx="445.6" cy="272.4" r="11.4"/>
	</g>
</g>
</svg>
