<svg xml:space="preserve" viewBox="122.46385756676557 1.3470450513999999 449.146290801187 468.0964" y="0px" x="0px" xmlns:xlink="http://www.w3.org/1999/xlink" xmlns="http://www.w3.org/2000/svg" id="Camada_1" version="1.1" style="max-height: 500px" width="449.146290801187" height="468.0964">
<g>
	<g>
		<path d="M244.7,197.2c0,0-29.8,8.2-35.8,32.5s-6,24.3-6,24.3L178.4,378c0,0,0.3,43.8,34.8,50.8s57.8-16,57.8-16s9-11.3,11.3-17.8&#10;&#9;&#9;&#9;s18.8-41,36.5-41.3s40.3,0,40.3,0V199.2L244.7,197.2z"/>
		<path d="M466,197.3c0,0,29.8,8.2,35.8,32.5s6,24.3,6,24.3L532.4,378c0,0-0.3,43.8-34.8,50.8s-57.8-16-57.8-16s-9-11.3-11.3-17.8&#10;&#9;&#9;&#9;s-18.8-41-36.5-41.3s-40.3,0-40.3,0V199.3L466,197.3z"/>
	</g>
	<g>
		<path d="M247.8,196.2c0,0-29.2,7.7-35.1,30.5c-5.9,22.9-5.9,22.9-5.9,22.9l-24,116.5c0,0,0.2,41.1,34,47.7&#10;&#9;&#9;&#9;s56.5-15,56.5-15s8.8-10.6,11-16.7c2.2-6.1,18.4-38.5,35.7-38.8s39.4,0,39.4,0V198L247.8,196.2z" fill="#FFFFFF"/>
		<path d="M463,196.2c0,0,28.9,7.7,34.7,30.5s5.8,22.9,5.8,22.9l23.8,116.5c0,0-0.2,41.1-33.7,47.7s-56-15-56-15&#10;&#9;&#9;&#9;s-8.7-10.6-10.9-16.7c-2.2-6.1-18.2-38.5-35.4-38.8s-39,0-39,0V198.1L463,196.2z" fill="#FFFFFF"/>
	</g>
	<g>
		<rect height="24.4" width="79.1" stroke-miterlimit="10" stroke-width="2" stroke="#000000" fill="#BF0411" y="257.1" x="247.2"/>
		<polygon points="299.3,229.8 299.3,308.8 274.9,308.8 &#10;&#9;&#9;&#9;274.9,281.5 274.9,229.8" stroke-miterlimit="10" stroke-width="2" stroke="#000000" fill="#BF0411"/>
		<rect height="22.4" width="3.1" fill="#BF0411" y="258.1" x="273.3"/>
		<rect height="22.4" width="3.1" fill="#BF0411" y="258.1" x="297.9"/>
	</g>
	<g>
		<circle r="11.4" cy="249.9" cx="421.5" fill="#3FA1A7"/>
		<circle r="11.4" cy="272.4" cx="397.8" fill="#26335F"/>
		<circle r="11.4" cy="295.6" cx="421.8" fill="#C02C4D"/>
		<circle r="11.4" cy="272.4" cx="445.6" fill="#F2D343"/>
	</g>
</g>
<g>
	<path d="M261.3,173.7h-2.6h-0.7c-1.9,0-2.9-0.8-2.9-2.5c0-1.1,0.4-1.9,1.2-2.6c0.8-0.7,1.7-1.1,2.9-1.1h0.7h7.6&#10;&#9;&#9;c5.1,0,9,1.2,11.7,3.6c2.7,2.4,4.1,5.9,4.1,10.4c0,6.9-2.3,13.3-6.9,19c-2.6,3.2-5.5,5.6-8.8,7.1s-7.2,2.2-11.8,2.2h-1.8l-0.3,0.7&#10;&#9;&#9;c-1.2,2.7-2.2,4.6-2.8,5.7c-0.7,1.1-1.6,2.1-2.7,3.2c-2.9,2.6-6.2,4-9.9,4c-3.1,0-5.6-0.9-7.6-2.7c-2-1.8-3-4.1-3-6.9&#10;&#9;&#9;c0-1.7,0.4-3.3,1.3-4.8s2-2.7,3.4-3.5c1.9-1.1,4.4-1.6,7.6-1.6h9.2L261.3,173.7z M246.6,209.9h-6.9c-3.4,0-5.1,1.2-5.1,3.6&#10;&#9;&#9;c0,1,0.4,1.8,1.1,2.5c0.7,0.7,1.6,1,2.7,1c1.6,0,3.1-0.6,4.5-1.9C244.5,213.9,245.7,212.1,246.6,209.9z M256.4,203.7h1&#10;&#9;&#9;c5.3,0,9.8-2.4,13.4-7.1c1.7-2.3,3.1-4.7,4.1-7.4c1-2.7,1.5-5.1,1.5-7.4c0-2.5-0.7-4.5-2.1-5.9c-1.4-1.4-3.3-2.2-5.8-2.2&#10;&#9;&#9;L256.4,203.7z"/>
	<path d="M290.2,188.7l-0.9,2.2c-0.8,1.9-1.8,2.9-3.1,2.9c-0.8,0-1.4-0.2-1.9-0.7c-0.5-0.5-0.8-1-0.8-1.7c0-0.4,0.2-1.1,0.6-2&#10;&#9;&#9;l2.9-7.2c0.7-1.7,1.7-2.6,3-2.6c1.3,0,2.1,0.6,2.4,1.8l0.2,0.8c0.1,0.4,0.3,0.7,0.5,0.8s0.7,0.2,1.5,0.2h6.1c2.3,0,3.4,0.8,3.4,2.4&#10;&#9;&#9;c0,2.2-1.4,3.3-4.3,3.3l-0.3,0.3c-2.7,2.6-4.1,4.6-4.1,6.1c0,1.4,0.8,2.1,2.4,2.1h3.3c2.2,0,3.3,0.8,3.3,2.3c0,1.1-0.4,1.9-1.2,2.5&#10;&#9;&#9;c-0.8,0.6-1.8,0.9-3.2,0.9h-5.1c-1.7,0-3.1-0.6-4.2-1.8c-1.1-1.2-1.6-2.7-1.6-4.6c0-1.2,0.3-2.4,0.9-3.5s1.6-2.5,3.1-4.2H290.2z"/>
	<path d="M310.4,196.3c1,0,1.8,0.4,2.5,1.1s1.1,1.6,1.1,2.5c0,1-0.4,1.9-1.1,2.6c-0.7,0.7-1.6,1.1-2.5,1.1c-1,0-1.9-0.4-2.6-1.1&#10;&#9;&#9;c-0.7-0.7-1.1-1.6-1.1-2.6c0-1,0.4-1.8,1.1-2.5C308.6,196.7,309.4,196.3,310.4,196.3z"/>
	<path d="M362.3,196.7h3.8c2.4,0,3.6,0.8,3.6,2.5c0,1.1-0.4,2-1.3,2.7c-0.8,0.6-2,1-3.5,1h-5.2l-1.9,4.8c-2.1,5.3-4.3,9-6.5,11.1&#10;&#9;&#9;c-2.3,2.2-5.1,3.2-8.5,3.2c-3.2,0-5.9-1.1-8-3.2s-3.2-4.8-3.2-8c0-5,2.4-8.9,7.2-11.6c2.9-1.6,7-2.5,12.2-2.5l4.1-0.1l0.9-2.2&#10;&#9;&#9;c-1.3,0.5-2.6,0.7-4,0.7c-2.6,0-4.8-0.9-6.4-2.8c-1.6-1.8-2.4-4.3-2.4-7.3h-3.6h-0.7c-1.9,0-2.9-0.8-2.9-2.5c0-1.1,0.4-1.9,1.2-2.7&#10;&#9;&#9;c0.8-0.7,1.8-1.1,2.9-1.1h0.7h3.8c1.9-3.7,4.3-6.7,7.1-8.8c2.9-2.1,5.9-3.2,9.1-3.2c2.6,0,4.8,0.8,6.5,2.3c1.7,1.6,2.5,3.6,2.5,6&#10;&#9;&#9;c0,3.4-1.5,6.1-4.6,8c-2.1,1.2-5.1,1.9-9.3,1.9h-5.9v0.5c0,2.2,1.3,3.3,3.9,3.3c1.2,0,2.3-0.3,3.5-1l1.4-0.8c1.2-0.7,2.2-1,3.1-1&#10;&#9;&#9;c0.9,0,1.7,0.3,2.4,0.9c0.6,0.6,0.9,1.3,0.9,2.2c0,0.6-0.2,1.4-0.7,2.6L362.3,196.7z M352.5,202.8c-3.6,0-6.4,0.3-8.4,1&#10;&#9;&#9;c-1.8,0.6-3.2,1.6-4.2,2.8c-1,1.2-1.6,2.5-1.6,4c0,1.3,0.4,2.5,1.3,3.4c0.9,0.9,2,1.4,3.3,1.4c1.6,0,3-0.7,4.3-2.1&#10;&#9;&#9;c1.3-1.4,2.5-3.7,3.8-6.8L352.5,202.8z M351.7,179h5c4.3,0,6.4-1.2,6.4-3.5c0-0.7-0.3-1.3-0.8-1.7c-0.6-0.5-1.3-0.7-2.1-0.7&#10;&#9;&#9;c-1.3,0-2.7,0.5-4.3,1.6S353,177.2,351.7,179z"/>
	<path d="M389.4,197.2h2.8c2.2,0,3.3,0.8,3.3,2.3c0,1.1-0.4,1.9-1.2,2.5c-0.8,0.6-1.8,0.9-3.2,0.9h-3.3c-1.5,0-2.5-0.6-3-1.7&#10;&#9;&#9;c-1.3,1.2-2.5,1.7-3.8,1.7h-2.9c-1.9,0-3.4-0.7-4.6-2c-1.2-1.4-1.7-3.1-1.7-5.3c0-3.3,1.1-6.3,3.4-8.9s4.9-3.9,7.7-3.9&#10;&#9;&#9;c2.2,0,3.8,0.8,4.8,2.3c0.9-1.3,2-1.9,3.4-1.9c0.8,0,1.4,0.2,1.9,0.7c0.5,0.5,0.8,1.1,0.8,1.8c0,0.5-0.1,1.1-0.4,1.7l-0.3,0.7&#10;&#9;&#9;L389.4,197.2z M380,197.3h0.6c1.4,0,2.4-0.6,2.8-1.7l1.8-4.5c0.2-0.6,0.4-1.1,0.4-1.5c0-0.5-0.2-0.9-0.7-1.2&#10;&#9;&#9;c-0.5-0.3-1-0.5-1.6-0.5c-1.3,0-2.5,0.7-3.7,2.2c-1.2,1.5-1.8,3-1.8,4.6C377.8,196.4,378.5,197.3,380,197.3z"/>
	<path d="M428.3,197.2h3.1c2.2,0,3.3,0.8,3.3,2.3c0,1.1-0.4,1.9-1.2,2.5c-0.8,0.6-1.8,0.9-3.2,0.9h-5.3c-1.1,0-2.1-0.3-2.8-0.9&#10;&#9;&#9;c-0.7-0.6-1.1-1.4-1.1-2.4c0-0.7,0.2-1.6,0.7-2.7l2.4-5.9c0.1-0.3,0.2-0.7,0.2-1c0-1.1-0.6-1.7-1.7-1.7c-0.9,0-1.8,0.4-2.6,1.2&#10;&#9;&#9;c-0.9,0.8-1.6,1.8-2.1,3.2l-2.9,7.1c-0.9,2.3-2.3,3.5-4.1,3.5c-0.7,0-1.3-0.2-1.8-0.7c-0.5-0.5-0.8-1-0.8-1.7&#10;&#9;&#9;c0-0.5,0.1-1.1,0.4-1.8l0.3-0.7l2.9-7.2c0.3-0.6,0.4-1.1,0.4-1.5c0-0.4-0.2-0.7-0.5-1c-0.3-0.3-0.8-0.4-1.2-0.4&#10;&#9;&#9;c-1.9,0-3.3,1.3-4.4,4l-3,7.4c-0.9,2.3-2.3,3.5-4.1,3.5c-0.7,0-1.3-0.2-1.8-0.7s-0.8-1-0.8-1.7c0-0.5,0.1-1.1,0.4-1.8l0.3-0.7&#10;&#9;&#9;l5.1-12.7c0.7-1.8,1.8-2.7,3.3-2.7c1.5,0,2.4,0.7,2.8,2.1c1.2-1,2.1-1.7,2.9-2c0.7-0.3,1.6-0.5,2.7-0.5c2.3,0,4,1,5.2,3&#10;&#9;&#9;c1.9-2,4.1-3,6.5-3c1.7,0,3,0.5,4.2,1.4c1.1,1,1.7,2.1,1.7,3.5c0,0.9-0.2,1.8-0.6,2.7L428.3,197.2z"/>
	<path d="M441.1,195.3c0,1.3,1,1.9,2.9,1.9h7.7c2.2,0,3.3,0.8,3.3,2.3c0,1.1-0.4,1.9-1.2,2.5c-0.8,0.6-1.8,0.9-3.2,0.9h-7.3&#10;&#9;&#9;c-2.7,0-4.8-0.7-6.2-2c-1.4-1.3-2.1-3.3-2.1-5.9c0-3.3,1.1-6.2,3.4-8.6s4.9-3.6,8-3.6c2.3,0,4.1,0.6,5.4,1.8&#10;&#9;&#9;c1.4,1.2,2.1,2.7,2.1,4.7c0,2.3-0.9,4.1-2.8,5.2c-1.1,0.6-2.6,1-4.7,1H441.1z M442.3,190.6h2.8c1.8,0,2.7-0.4,2.7-1.2&#10;&#9;&#9;c-0.1-0.9-0.6-1.4-1.8-1.4C444.5,188,443.2,188.8,442.3,190.6z"/>
	<path d="M464.5,190.1l-0.5,1.2c-0.8,1.7-1.8,2.6-3.2,2.6c-0.7,0-1.3-0.2-1.9-0.7c-0.6-0.5-0.8-1.1-0.8-1.7c0-0.6,0.2-1.4,0.8-2.4&#10;&#9;&#9;l3.4-7c0.8-1.7,1.9-2.5,3.2-2.5c0.7,0,1.3,0.2,1.7,0.7c0.5,0.4,0.7,1,0.7,1.6c0,0.2-0.1,0.5-0.2,1c-0.1,0.4-0.1,0.7-0.1,1&#10;&#9;&#9;c0,1.1,0.4,2.2,1.2,3.3l1.5,2c1.5,2.1,2.3,4.1,2.3,6.1c0,2.2-0.8,4-2.4,5.4c-1.6,1.5-3.6,2.2-6.1,2.2h-5.4c-2.2,0-3.3-0.8-3.3-2.3&#10;&#9;&#9;c0-1.1,0.4-1.9,1.2-2.5c0.8-0.6,1.8-0.9,3.2-0.9h3c2.4,0,3.6-0.9,3.6-2.6c0-0.6-0.2-1.4-0.7-2.3L464.5,190.1z"/>
</g>
<path d="M346.5,184.7c0,0-81.7-34.1-63.1-53.7&#10;&#9;S364.1,94,364.1,94s85.8-28.3,9.5-44.8S284.2,7,284.2,7" stroke-miterlimit="10" stroke-width="6.5" stroke="#000000" fill="none"/>
</svg>