<?xml version="1.0" encoding="utf-8"?>
<!-- Generator: Adobe Illustrator 18.0.0, SVG Export Plug-In . SVG Version: 6.00 Build 0)  -->
<!DOCTYPE svg PUBLIC "-//W3C//DTD SVG 1.1//EN" "http://www.w3.org/Graphics/SVG/1.1/DTD/svg11.dtd">
<svg version="1.1" id="Layer_1" xmlns="http://www.w3.org/2000/svg" xmlns:xlink="http://www.w3.org/1999/xlink" x="0px" y="0px"
	 viewBox="0 0 600 600" enable-background="new 0 0 600 600" xml:space="preserve">
<g>
	<g>
		<g>
			<path fill="#030104" d="M139.5,250c0,0-42.6,11.7-51.2,46.5s-8.6,34.8-8.6,34.8L44.6,508.8c0,0,0.4,62.7,49.8,72.7
				c49.4,10,82.7-22.9,82.7-22.9s12.9-16.2,16.2-25.5c3.3-9.3,26.9-58.7,52.2-59.1s57.7,0,57.7,0V252.9L139.5,250z"/>
			<path fill="#030104" d="M456.2,250.2c0,0,42.6,11.7,51.2,46.5c8.6,34.8,8.6,34.8,8.6,34.8l35.2,177.3c0,0-0.4,62.7-49.8,72.7
				c-49.4,10-82.7-22.9-82.7-22.9s-12.9-16.2-16.2-25.5c-3.3-9.3-26.9-58.7-52.2-59.1c-25.3-0.4-57.7,0-57.7,0V253L456.2,250.2z"/>
		</g>
		<path fill="none" stroke="#030104" stroke-width="7.2313" stroke-miterlimit="10" d="M285.2,254.3c0,0-116.9-48.8-90.3-76.9
			s115.4-53.1,115.4-53.1S433,83.9,323.8,60.3S195.9,0,195.9,0"/>
		<g>
			<path fill="#FFFFFF" d="M143.9,248.6c0,0-41.8,11-50.2,43.7C85.2,325,85.2,325,85.2,325L50.9,491.7c0,0,0.3,58.8,48.7,68.3
				c48.4,9.4,80.9-21.5,80.9-21.5s12.6-15.2,15.7-23.9s26.3-55.1,51.1-55.5c24.8-0.4,56.4,0,56.4,0V251.2L143.9,248.6z"/>
			<path fill="#FFFFFF" d="M451.9,248.6c0,0,41.4,11,49.7,43.7s8.3,32.8,8.3,32.8l34.1,166.7c0,0-0.3,58.8-48.2,68.3
				c-47.9,9.4-80.1-21.5-80.1-21.5s-12.5-15.2-15.6-23.9c-3.1-8.7-26-55.1-50.7-55.5c-24.6-0.4-55.8,0-55.8,0V251.3L451.9,248.6z"/>
		</g>
		<g>
			
				<rect x="143.1" y="335.7" fill="#B32217" stroke="#030104" stroke-width="2.225" stroke-miterlimit="10" width="113.2" height="34.9"/>
			<polygon fill="#B32217" stroke="#030104" stroke-width="2.225" stroke-miterlimit="10" points="217.6,296.7 217.6,409.7 
				182.7,409.7 182.7,370.7 182.7,296.7 			"/>
			<rect x="180.4" y="337.2" fill="#B32217" width="4.4" height="32.1"/>
			<rect x="215.6" y="337.2" fill="#B32217" width="4.4" height="32.1"/>
		</g>
		<g>
			<circle fill="#3F979C" cx="392.5" cy="325.4" r="16.3"/>
			<circle fill="#25335D" cx="358.6" cy="357.6" r="16.3"/>
			<circle fill="#B4334B" cx="392.9" cy="390.8" r="16.3"/>
			<circle fill="#E8CB49" cx="427" cy="357.6" r="16.3"/>
		</g>
	</g>
</g>
<linearGradient id="SVGID_1_" gradientUnits="userSpaceOnUse" x1="23.019" y1="69.1619" x2="557.4121" y2="514.5292">
	<stop  offset="4.135833e-007" style="stop-color:#AF4846"/>
	<stop  offset="0.352" style="stop-color:#F5DD61"/>
	<stop  offset="0.4637" style="stop-color:#B5C394"/>
	<stop  offset="0.6412" style="stop-color:#3E97C6"/>
	<stop  offset="0.844" style="stop-color:#466488"/>
	<stop  offset="1" style="stop-color:#3D4161"/>
</linearGradient>
<rect fill="url(#SVGID_1_)" width="600" height="600"/>
<g>
	<g>
		<g>
			<path fill="#030104" d="M142.4,258.1c0,0-40.4,11.1-48.6,44.1s-8.1,33-8.1,33L52.4,503.5c0,0,0.4,59.4,47.2,68.9
				c46.8,9.5,78.4-21.7,78.4-21.7s12.2-15.3,15.3-24.2c3.1-8.8,25.5-55.6,49.5-56.1c24-0.4,54.7,0,54.7,0V260.9L142.4,258.1z"/>
			<path fill="#030104" d="M442.7,258.3c0,0,40.4,11.1,48.6,44.1c8.1,33,8.1,33,8.1,33l33.4,168.2c0,0-0.4,59.4-47.2,68.9
				c-46.8,9.5-78.4-21.7-78.4-21.7s-12.2-15.3-15.3-24.2c-3.1-8.8-25.5-55.6-49.5-56.1c-24-0.4-54.7,0-54.7,0V261L442.7,258.3z"/>
		</g>
		<g>
			<path fill="#FFFFFF" d="M146.6,256.8c0,0-39.6,10.5-47.6,41.4c-8,31.1-8,31.1-8,31.1L58.4,487.4c0,0,0.3,55.8,46.1,64.7
				c45.9,9,76.7-20.4,76.7-20.4s11.9-14.4,14.9-22.7s25-52.3,48.5-52.7c23.5-0.4,53.5,0,53.5,0V259.2L146.6,256.8z"/>
			<path fill="#FFFFFF" d="M438.7,256.8c0,0,39.2,10.5,47.1,41.4s7.9,31.1,7.9,31.1l32.3,158.1c0,0-0.3,55.8-45.7,64.7
				c-45.5,9-76-20.4-76-20.4s-11.8-14.4-14.8-22.7c-3-8.3-24.7-52.3-48-52.7c-23.3-0.4-52.9,0-52.9,0V259.4L438.7,256.8z"/>
		</g>
		<g>
			
				<rect x="145.8" y="339.4" fill="#B32217" stroke="#030104" stroke-width="2.7144" stroke-miterlimit="10" width="107.4" height="33.1"/>
			<polygon fill="#B32217" stroke="#030104" stroke-width="2.7144" stroke-miterlimit="10" points="216.5,302.4 216.5,409.6 
				183.4,409.6 183.4,372.6 183.4,302.4 			"/>
			<rect x="181.2" y="340.8" fill="#B32217" width="4.2" height="30.4"/>
			<rect x="214.6" y="340.8" fill="#B32217" width="4.2" height="30.4"/>
		</g>
		<g>
			<circle fill="#3F979C" cx="382.3" cy="329.7" r="15.5"/>
			<circle fill="#25335D" cx="350.2" cy="360.2" r="15.5"/>
			<circle fill="#B4334B" cx="382.7" cy="391.7" r="15.5"/>
			<circle fill="#E8CB49" cx="415" cy="360.2" r="15.5"/>
		</g>
	</g>
	<g>
		<path fill="#030104" d="M164.9,226.2h-3.5h-1c-2.6,0-3.9-1.1-3.9-3.4c0-1.5,0.5-2.6,1.6-3.5c1.1-1,2.3-1.5,3.9-1.5h1h10.3
			c6.9,0,12.2,1.6,15.9,4.9c3.7,3.3,5.6,8,5.6,14.1c0,9.4-3.1,18.1-9.4,25.8c-3.5,4.3-7.5,7.6-11.9,9.6c-4.5,2-9.8,3-16,3H155
			l-0.4,1c-1.6,3.7-3,6.2-3.8,7.7c-1,1.5-2.2,2.9-3.7,4.3c-3.9,3.5-8.4,5.4-13.4,5.4c-4.2,0-7.6-1.2-10.3-3.7
			c-2.7-2.4-4.1-5.6-4.1-9.4c0-2.3,0.5-4.5,1.8-6.5c1.2-2,2.7-3.7,4.6-4.8c2.6-1.5,6-2.2,10.3-2.2h12.5L164.9,226.2z M145,275.4
			h-9.4c-4.6,0-6.9,1.6-6.9,4.9c0,1.4,0.5,2.4,1.5,3.4c1,1,2.2,1.4,3.7,1.4c2.2,0,4.2-0.8,6.1-2.6
			C142.1,280.8,143.7,278.4,145,275.4z M158.3,267h1.4c7.2,0,13.3-3.3,18.2-9.6c2.3-3.1,4.2-6.4,5.6-10c1.4-3.7,2-6.9,2-10
			c0-3.4-1-6.1-2.9-8c-1.9-1.9-4.5-3-7.9-3L158.3,267z"/>
		<path fill="#030104" d="M204.1,246.6l-1.2,3c-1.1,2.6-2.4,3.9-4.2,3.9c-1.1,0-1.9-0.3-2.6-1s-1.1-1.4-1.1-2.3
			c0-0.5,0.3-1.5,0.8-2.7l3.9-9.8c1-2.3,2.3-3.5,4.1-3.5s2.9,0.8,3.3,2.4l0.3,1.1c0.1,0.5,0.4,1,0.7,1.1c0.3,0.1,1,0.3,2,0.3h8.3
			c3.1,0,4.6,1.1,4.6,3.3c0,3-1.9,4.5-5.8,4.5l-0.4,0.4c-3.7,3.5-5.6,6.2-5.6,8.3c0,1.9,1.1,2.9,3.3,2.9h4.5c3,0,4.5,1.1,4.5,3.1
			c0,1.5-0.5,2.6-1.6,3.4c-1.1,0.8-2.4,1.2-4.3,1.2h-6.9c-2.3,0-4.2-0.8-5.7-2.4c-1.5-1.6-2.2-3.7-2.2-6.2c0-1.6,0.4-3.3,1.2-4.8
			c0.8-1.5,2.2-3.4,4.2-5.7h-3.9V246.6z"/>
		<path fill="#030104" d="M231.5,256.9c1.4,0,2.4,0.5,3.4,1.5c1,1,1.5,2.2,1.5,3.4c0,1.4-0.5,2.6-1.5,3.5c-1,1-2.2,1.5-3.4,1.5
			c-1.4,0-2.6-0.5-3.5-1.5c-1-1-1.5-2.2-1.5-3.5s0.5-2.4,1.5-3.4C229.1,257.5,230.2,256.9,231.5,256.9z"/>
		<path fill="#030104" d="M302,257.5h5.2c3.3,0,4.9,1.1,4.9,3.4c0,1.5-0.5,2.7-1.8,3.7c-1.1,0.8-2.7,1.4-4.8,1.4h-7.1l-2.6,6.5
			c-2.9,7.2-5.8,12.2-8.8,15.1c-3.1,3-6.9,4.3-11.5,4.3c-4.3,0-8-1.5-10.9-4.3s-4.3-6.5-4.3-10.9c0-6.8,3.3-12.1,9.8-15.7
			c3.9-2.2,9.5-3.4,16.6-3.4l5.6-0.1l1.2-3c-1.8,0.7-3.5,1-5.4,1c-3.5,0-6.5-1.2-8.7-3.8c-2.2-2.4-3.3-5.8-3.3-9.9h-4.9h-1
			c-2.6,0-3.9-1.1-3.9-3.4c0-1.5,0.5-2.6,1.6-3.7c1.1-1,2.4-1.5,3.9-1.5h1h5.2c2.6-5,5.8-9.1,9.6-11.9c3.9-2.9,8-4.3,12.4-4.3
			c3.5,0,6.5,1.1,8.8,3.1c2.3,2.2,3.4,4.9,3.4,8.1c0,4.6-2,8.3-6.2,10.9c-2.9,1.6-6.9,2.6-12.6,2.6h-8v0.7c0,3,1.8,4.5,5.3,4.5
			c1.6,0,3.1-0.4,4.8-1.4l1.9-1.1c1.6-1,3-1.4,4.2-1.4c1.2,0,2.3,0.4,3.3,1.2c0.8,0.8,1.2,1.8,1.2,3c0,0.8-0.3,1.9-1,3.5L302,257.5z
			 M288.7,265.7c-4.9,0-8.7,0.4-11.4,1.4c-2.4,0.8-4.3,2.2-5.7,3.8c-1.4,1.6-2.2,3.4-2.2,5.4c0,1.8,0.5,3.4,1.8,4.6
			c1.2,1.2,2.7,1.9,4.5,1.9c2.2,0,4.1-1,5.8-2.9c1.8-1.9,3.4-5,5.2-9.2L288.7,265.7z M287.6,233.4h6.8c5.8,0,8.7-1.6,8.7-4.8
			c0-1-0.4-1.8-1.1-2.3c-0.8-0.7-1.8-1-2.9-1c-1.8,0-3.7,0.7-5.8,2.2C291.1,229.1,289.4,231,287.6,233.4z"/>
		<path fill="#030104" d="M338.8,258.1h3.8c3,0,4.5,1.1,4.5,3.1c0,1.5-0.5,2.6-1.6,3.4c-1.1,0.8-2.4,1.2-4.3,1.2h-4.5
			c-2,0-3.4-0.8-4.1-2.3c-1.8,1.6-3.4,2.3-5.2,2.3h-3.9c-2.6,0-4.6-1-6.2-2.7c-1.6-1.9-2.3-4.2-2.3-7.2c0-4.5,1.5-8.6,4.6-12.1
			c3.1-3.5,6.7-5.3,10.5-5.3c3,0,5.2,1.1,6.5,3.1c1.2-1.8,2.7-2.6,4.6-2.6c1.1,0,1.9,0.3,2.6,1c0.7,0.7,1.1,1.5,1.1,2.4
			c0,0.7-0.1,1.5-0.5,2.3l-0.4,1L338.8,258.1z M326,258.3h0.8c1.9,0,3.3-0.8,3.8-2.3l2.4-6.1c0.3-0.8,0.5-1.5,0.5-2
			c0-0.7-0.3-1.2-1-1.6c-0.7-0.4-1.4-0.7-2.2-0.7c-1.8,0-3.4,1-5,3c-1.6,2-2.4,4.1-2.4,6.2C323,257.1,324,258.3,326,258.3z"/>
		<path fill="#030104" d="M391.6,258.1h4.2c3,0,4.5,1.1,4.5,3.1c0,1.5-0.5,2.6-1.6,3.4c-1.1,0.8-2.4,1.2-4.3,1.2h-7.2
			c-1.5,0-2.9-0.4-3.8-1.2c-1-0.8-1.5-1.9-1.5-3.3c0-1,0.3-2.2,1-3.7l3.3-8c0.1-0.4,0.3-1,0.3-1.4c0-1.5-0.8-2.3-2.3-2.3
			c-1.2,0-2.4,0.5-3.5,1.6c-1.2,1.1-2.2,2.4-2.9,4.3l-3.9,9.6c-1.2,3.1-3.1,4.8-5.6,4.8c-1,0-1.8-0.3-2.4-1
			c-0.7-0.7-1.1-1.4-1.1-2.3c0-0.7,0.1-1.5,0.5-2.4l0.4-1l3.9-9.8c0.4-0.8,0.5-1.5,0.5-2s-0.3-1-0.7-1.4c-0.4-0.4-1.1-0.5-1.6-0.5
			c-2.6,0-4.5,1.8-6,5.4l-4.1,10c-1.2,3.1-3.1,4.8-5.6,4.8c-1,0-1.8-0.3-2.4-1c-0.7-0.7-1.1-1.4-1.1-2.3c0-0.7,0.1-1.5,0.5-2.4
			l0.4-1l6.9-17.2c1-2.4,2.4-3.7,4.5-3.7c2,0,3.3,1,3.8,2.9c1.6-1.4,2.9-2.3,3.9-2.7c1-0.4,2.2-0.7,3.7-0.7c3.1,0,5.4,1.4,7.1,4.1
			c2.6-2.7,5.6-4.1,8.8-4.1c2.3,0,4.1,0.7,5.7,1.9c1.5,1.4,2.3,2.9,2.3,4.8c0,1.2-0.3,2.4-0.8,3.7L391.6,258.1z"/>
		<path fill="#030104" d="M408.9,255.6c0,1.8,1.4,2.6,3.9,2.6h10.5c3,0,4.5,1.1,4.5,3.1c0,1.5-0.5,2.6-1.6,3.4
			c-1.1,0.8-2.4,1.2-4.3,1.2h-9.9c-3.7,0-6.5-1-8.4-2.7c-1.9-1.8-2.9-4.5-2.9-8c0-4.5,1.5-8.4,4.6-11.7c3.1-3.3,6.7-4.9,10.9-4.9
			c3.1,0,5.6,0.8,7.3,2.4c1.9,1.6,2.9,3.7,2.9,6.4c0,3.1-1.2,5.6-3.8,7.1c-1.5,0.8-3.5,1.4-6.4,1.4h-7.2V255.6z M410.6,249.2h3.8
			c2.4,0,3.7-0.5,3.7-1.6c-0.1-1.2-0.8-1.9-2.4-1.9C413.5,245.7,411.8,246.7,410.6,249.2z"/>
		<path fill="#030104" d="M440.7,248.5l-0.7,1.6c-1.1,2.3-2.4,3.5-4.3,3.5c-1,0-1.8-0.3-2.6-1c-0.8-0.7-1.1-1.5-1.1-2.3
			c0-0.8,0.3-1.9,1.1-3.3l4.6-9.5c1.1-2.3,2.6-3.4,4.3-3.4c1,0,1.8,0.3,2.3,1c0.7,0.5,1,1.4,1,2.2c0,0.3-0.1,0.7-0.3,1.4
			c-0.1,0.5-0.1,1-0.1,1.4c0,1.5,0.5,3,1.6,4.5l2,2.7c2,2.9,3.1,5.6,3.1,8.3c0,3-1.1,5.4-3.3,7.3c-2.2,2-4.9,3-8.3,3h-7.3
			c-3,0-4.5-1.1-4.5-3.1c0-1.5,0.5-2.6,1.6-3.4c1.1-0.8,2.4-1.2,4.3-1.2h4.1c3.3,0,4.9-1.2,4.9-3.5c0-0.8-0.3-1.9-1-3.1L440.7,248.5
			z"/>
	</g>
	<path fill="none" stroke="#030104" stroke-width="8.8219" stroke-miterlimit="10" d="M280.5,241.2c0,0-110.9-46.3-85.6-72.9
		s109.5-50.2,109.5-50.2s116.4-38.4,12.9-60.8S196,0,196,0"/>
</g>
</svg>
