<?xml version="1.0" encoding="utf-8"?>
<!-- Generator: Adobe Illustrator 18.0.0, SVG Export Plug-In . SVG Version: 6.00 Build 0)  -->
<!DOCTYPE svg PUBLIC "-//W3C//DTD SVG 1.1//EN" "http://www.w3.org/Graphics/SVG/1.1/DTD/svg11.dtd">
<svg version="1.1" id="Layer_1" xmlns="http://www.w3.org/2000/svg" xmlns:xlink="http://www.w3.org/1999/xlink" x="0px" y="0px"
	 viewBox="0 0 600 600" enable-background="new 0 0 600 600" xml:space="preserve">
<path fill="none" stroke="#000000" stroke-miterlimit="10" d="M541.5,157"/>
<g>
	<g id="XMLID_1_">
		<g>
			<path fill="#FFFFFF" d="M572.3,119.4c0,0-52.7,74.1-63.9,191.3c-11.2,117.2-61.1,200.8-61.1,200.8s-14.2,21.9-63.9,0
				c0,0-20.1,45.6-57.9,49.7c-96.7-4.7-297.6-68.8-297.6-68.8s81.3-99.8,97-243.9s69.5-209.7,69.5-209.7S408.5,59.3,572.3,119.4z"/>
			<path fill="#EAEDF2" d="M447.2,511.4c0,0-21.9,52.2-116.1,49.9c-1.9,0-3.8-0.1-5.7-0.2c37.8-4.1,57.9-49.7,57.9-49.7
				C433,533.2,447.2,511.4,447.2,511.4z"/>
		</g>
		<g>
			<path fill="none" stroke="#000000" stroke-width="3.3646" stroke-miterlimit="10" d="M572.3,119.4c0,0-52.7,74.1-63.9,191.3
				c-11.2,117.2-61.1,200.8-61.1,200.8s-21.9,52.2-116.1,49.9c-1.9,0-3.8-0.1-5.7-0.2c-96.7-4.7-297.6-68.8-297.6-68.8
				s81.3-99.8,97-243.9s69.5-209.7,69.5-209.7S408.5,59.3,572.3,119.4"/>
			<path fill="none" stroke="#000000" stroke-width="3.3646" stroke-miterlimit="10" d="M447.2,511.4c0,0-14.2,21.9-63.9,0
				c0,0-20.1,45.6-57.9,49.7c-2.1,0.2-4.2,0.3-6.4,0.3"/>
		</g>
	</g>
</g>
</svg>
