<?xml version="1.0" encoding="utf-8"?>
<!-- Generator: Adobe Illustrator 18.0.0, SVG Export Plug-In . SVG Version: 6.00 Build 0)  -->
<!DOCTYPE svg PUBLIC "-//W3C//DTD SVG 1.1//EN" "http://www.w3.org/Graphics/SVG/1.1/DTD/svg11.dtd">
<svg version="1.1" id="Layer_1" xmlns="http://www.w3.org/2000/svg" xmlns:xlink="http://www.w3.org/1999/xlink" x="0px" y="0px"
	 viewBox="0 0 600 600" enable-background="new 0 0 600 600" xml:space="preserve">
<g id="XMLID_1_">
	<g>
		<path fill="#5E5B55" d="M542.4,346.3c1.6,9.7-2,14.7-2,14.7l-45.7,85.2L423.8,375l-66.9-61.5l4.7-37.2l34.5-14l102.1,64.5
			c34.5,8.9,36.4-21.6,36.5-22.5L542.4,346.3z"/>
		<path fill="#706B62" d="M534.7,304.2C534.7,304.2,534.7,304.2,534.7,304.2c-0.1,0.9-2,31.4-36.5,22.5l-102.1-64.5l50-64.9
			l67.2-2.1l1.5,1L534.7,304.2z"/>
		<path fill="#5E5B55" d="M481.5,174.4l31.8,20.9l-67.2,2.1l-50.5-95.6l55.4,30.4c13.8,3.8,18,18.5,18,18.5
			C472.7,169.4,481.5,174.4,481.5,174.4z"/>
		<polygon fill="#7B7871" points="494.6,446.2 493.9,447.5 442.3,492.8 369.5,427.9 423.8,375 		"/>
		<path fill="#98948B" d="M395.6,101.8l50.5,95.6l-50,64.9l-34.5,14l-64.7,9.3c0,0-13.9,0.8-8.6,15l11.6,33.6l-34.5,64.2L175.9,342
			c0,0-38.3-23.8-110.5-22.3l-0.1-1.6l18.3-78l44.4-50l17.6-38.1c2.5-5.6,10.1-6.1,10.1-6.1l14.5-1.2c-11,11.4-3,20-3,20l36.4,31.5
			c7.1,3.5,12.7,1.1,12.7,1.1l39-22.5l61.7-6.2L395.6,101.8z"/>
		<path fill="#5E5B55" d="M442.3,492.8l-54.8,0.4l-40.3,18.5H224.1l41.2-113.4l34.5-64.2l22.8,85.2c0,0-0.2,2.9,4.1,3.4l42.8,5.2
			L442.3,492.8z"/>
		<path fill="#706B62" d="M423.8,375l-54.3,53l-42.8-5.2c-4.3-0.4-4.1-3.4-4.1-3.4l-22.8-85.2l57-20.7L423.8,375z"/>
		<path fill="#A8A59E" d="M395.6,101.8l-78.8,66.8l-61.7,6.2l-39,22.5c0,0-5.6,2.5-12.7-1.1l-36.4-31.5c0,0-8-8.6,3-20l36-2.9l62-44
			l43-23.7c9.2-3.2,17.8,0,17.8,0L395.6,101.8z"/>
		<path fill="#A8A59E" d="M361.6,276.2l-4.7,37.2l-57,20.7l-11.6-33.6c-5.2-14.2,8.6-15,8.6-15L361.6,276.2z"/>
		<path fill="#7B7871" d="M265.4,398.4l-41.2,113.4L89.6,452c-14.2-6.8-14.4-19.8-14.4-19.8l-9.8-112.4
			c72.3-1.6,110.5,22.3,110.5,22.3L265.4,398.4z"/>
	</g>
	<g>
	</g>
</g>
</svg>
