<svg xml:space="preserve" viewBox="122.46385756676557 1.3470450513999999 447.4640949554896 466.41260000000005" y="0px" x="0px" xmlns:xlink="http://www.w3.org/1999/xlink" xmlns="http://www.w3.org/2000/svg" id="Camada_1" version="1.1">
<g>
	<g>
		<path d="M244.7,197.2c0,0-29.8,8.2-35.8,32.5s-6,24.3-6,24.3L178.4,378c0,0,0.3,43.8,34.8,50.8s57.8-16,57.8-16s9-11.3,11.3-17.8&#10;&#9;&#9;&#9;s18.8-41,36.5-41.3s40.3,0,40.3,0V199.2L244.7,197.2z"/>
		<path d="M466,197.3c0,0,29.8,8.2,35.8,32.5s6,24.3,6,24.3L532.4,378c0,0-0.3,43.8-34.8,50.8s-57.8-16-57.8-16s-9-11.3-11.3-17.8&#10;&#9;&#9;&#9;s-18.8-41-36.5-41.3s-40.3,0-40.3,0V199.3L466,197.3z"/>
	</g>
	<path d="M346.5,200.2c0,0-81.7-34.1-63.1-53.7&#10;&#9;&#9;s80.6-37.1,80.6-37.1s85.8-28.3,9.5-44.8s-89.4-42.1-89.4-42.1" stroke-miterlimit="10" stroke-width="6.5" stroke="#000000" fill="none"/>
	<g>
		<path d="M247.8,196.2c0,0-29.2,7.7-35.1,30.5c-5.9,22.9-5.9,22.9-5.9,22.9l-24,116.5c0,0,0.2,41.1,34,47.7&#10;&#9;&#9;&#9;s56.5-15,56.5-15s8.8-10.6,11-16.7c2.2-6.1,18.4-38.5,35.7-38.8s39.4,0,39.4,0V198L247.8,196.2z" fill="#FFFFFF"/>
		<path d="M463,196.2c0,0,28.9,7.7,34.7,30.5s5.8,22.9,5.8,22.9l23.8,116.5c0,0-0.2,41.1-33.7,47.7s-56-15-56-15&#10;&#9;&#9;&#9;s-8.7-10.6-10.9-16.7c-2.2-6.1-18.2-38.5-35.4-38.8s-39,0-39,0V198.1L463,196.2z" fill="#FFFFFF"/>
	</g>
	<g>
		<rect height="24.4" width="79.1" stroke-miterlimit="10" stroke-width="2" stroke="#000000" fill="#BF0411" y="257.1" x="247.2"/>
		<polygon points="299.3,229.8 299.3,308.8 274.9,308.8 &#10;&#9;&#9;&#9;274.9,281.5 274.9,229.8" stroke-miterlimit="10" stroke-width="2" stroke="#000000" fill="#BF0411"/>
		<rect height="22.4" width="3.1" fill="#BF0411" y="258.1" x="273.3"/>
		<rect height="22.4" width="3.1" fill="#BF0411" y="258.1" x="297.9"/>
	</g>
	<g>
		<circle r="11.4" cy="249.9" cx="421.5" fill="#3FA1A7"/>
		<circle r="11.4" cy="272.4" cx="397.8" fill="#26335F"/>
		<circle r="11.4" cy="295.6" cx="421.8" fill="#C02C4D"/>
		<circle r="11.4" cy="272.4" cx="445.6" fill="#F2D343"/>
	</g>
</g>
</svg>