<svg xml:space="preserve" viewBox="64.62 263.36 633.6 193.6" y="0px" x="0px" xmlns:xlink="http://www.w3.org/1999/xlink" xmlns="http://www.w3.org/2000/svg" id="Layer_1" version="1.1" style="max-height: 500px" width="633.6" height="193.6">
<g>
	<path d="M165.5,305.6h-6h-1.6c-4.5,0-6.7-1.9-6.7-5.8c0-2.5,0.9-4.5,2.8-6.2c1.8-1.7,4.1-2.5,6.8-2.5h1.6H180&#10;&#9;&#9;c11.9,0,21,2.8,27.3,8.5c6.3,5.7,9.5,13.8,9.5,24.4c0,16.2-5.4,31-16.2,44.5c-6.1,7.6-13,13.1-20.7,16.6&#10;&#9;&#9;c-7.7,3.5-16.9,5.2-27.6,5.2h-4.2l-0.7,1.7c-2.8,6.3-5,10.7-6.7,13.3c-1.6,2.5-3.7,5-6.3,7.4c-6.7,6.2-14.5,9.3-23.2,9.3&#10;&#9;&#9;c-7.2,0-13.1-2.1-17.7-6.4c-4.6-4.3-6.9-9.7-6.9-16.3c0-4,1-7.8,3-11.4s4.7-6.3,8.1-8.3c4.4-2.5,10.4-3.8,17.9-3.8h21.5&#10;&#9;&#9;L165.5,305.6z M131.1,390.4H115c-7.9,0-11.9,2.8-11.9,8.4c0,2.3,0.9,4.2,2.6,5.8c1.7,1.6,3.9,2.4,6.4,2.4c3.7,0,7.2-1.5,10.6-4.4&#10;&#9;&#9;C126.1,399.6,128.8,395.6,131.1,390.4z M154,375.9h2.4c12.5,0,23-5.6,31.4-16.7c4.1-5.3,7.3-11.1,9.7-17.3c2.4-6.2,3.5-12,3.5-17.3&#10;&#9;&#9;c0-5.9-1.7-10.5-5-13.9c-3.3-3.4-7.8-5.1-13.5-5.1L154,375.9z"/>
	<path d="M233.1,340.8l-2.1,5.1c-1.9,4.5-4.3,6.8-7.3,6.8c-1.8,0-3.3-0.5-4.5-1.6c-1.2-1.1-1.8-2.4-1.8-4.1c0-0.9,0.4-2.5,1.3-4.7&#10;&#9;&#9;l6.8-16.9c1.7-4.1,4-6.1,7-6.1c3,0,4.8,1.4,5.5,4.2l0.5,1.9c0.2,1,0.6,1.6,1.1,1.8c0.5,0.2,1.7,0.4,3.6,0.4h14.2&#10;&#9;&#9;c5.3,0,7.9,1.9,7.9,5.6c0,5.1-3.4,7.7-10.1,7.7l-0.7,0.6c-6.4,6.1-9.6,10.9-9.6,14.2c0,3.4,1.9,5,5.6,5h7.6c5.1,0,7.7,1.8,7.7,5.3&#10;&#9;&#9;c0,2.5-0.9,4.4-2.7,5.8c-1.8,1.4-4.3,2.1-7.5,2.1h-11.9c-4,0-7.3-1.4-9.9-4.2c-2.6-2.8-3.8-6.4-3.8-10.8c0-2.8,0.7-5.6,2.1-8.2&#10;&#9;&#9;c1.4-2.7,3.8-5.9,7.3-9.8H233.1z"/>
	<path d="M280.5,358.6c2.3,0,4.3,0.8,5.9,2.5c1.7,1.7,2.5,3.6,2.5,5.9c0,2.3-0.8,4.3-2.5,6c-1.7,1.7-3.6,2.5-5.9,2.5&#10;&#9;&#9;c-2.3,0-4.3-0.8-6-2.5c-1.7-1.7-2.5-3.7-2.5-6c0-2.3,0.8-4.3,2.5-5.9C276.1,359.4,278.1,358.6,280.5,358.6z"/>
	<path d="M401.9,359.4h9c5.6,0,8.4,2,8.4,5.9c0,2.7-1,4.8-3,6.3c-2,1.5-4.7,2.3-8.2,2.3h-12.1l-4.5,11.1c-4.9,12.3-10,21-15.3,26.1&#10;&#9;&#9;c-5.3,5.1-12,7.6-19.9,7.6c-7.5,0-13.8-2.5-18.8-7.5c-5-5-7.5-11.2-7.5-18.7c0-11.8,5.7-20.9,17-27.3c6.9-3.8,16.4-5.8,28.5-5.8&#10;&#9;&#9;l9.6-0.1l2.1-5.1c-3.1,1.1-6.2,1.7-9.4,1.7c-6.2,0-11.2-2.1-15-6.5c-3.8-4.3-5.7-10-5.7-17h-8.4H347c-4.5,0-6.8-1.9-6.8-5.8&#10;&#9;&#9;c0-2.5,0.9-4.5,2.8-6.2c1.8-1.7,4.1-2.5,6.8-2.5h1.6h8.8c4.4-8.8,10-15.6,16.7-20.6c6.7-5,13.8-7.4,21.3-7.4&#10;&#9;&#9;c6.2,0,11.2,1.8,15.1,5.5c3.9,3.6,5.8,8.3,5.8,14.1c0,8.1-3.6,14.3-10.8,18.7c-4.8,2.9-12,4.4-21.7,4.4h-13.8v1.2&#10;&#9;&#9;c0,5.2,3,7.8,9.1,7.8c2.7,0,5.5-0.8,8.3-2.4l3.2-1.9c2.8-1.6,5.2-2.4,7.1-2.4c2.2,0,4.1,0.7,5.5,2c1.5,1.3,2.2,3,2.2,5.1&#10;&#9;&#9;c0,1.3-0.6,3.3-1.7,6.1L401.9,359.4z M379,373.8c-8.5,0-15,0.8-19.6,2.4c-4.2,1.5-7.5,3.6-9.9,6.5c-2.4,2.8-3.6,5.9-3.6,9.3&#10;&#9;&#9;c0,3.1,1,5.8,3.1,8c2.1,2.2,4.6,3.3,7.7,3.3c3.7,0,7-1.6,10-4.9c3-3.3,5.9-8.6,8.9-15.9L379,373.8z M377.1,318h11.8&#10;&#9;&#9;c10,0,15-2.7,15-8.2c0-1.6-0.7-3-2-4c-1.3-1.1-3-1.6-5-1.6c-3.1,0-6.4,1.2-10,3.7C383.5,310.3,380.2,313.7,377.1,318z"/>
	<path d="M465.3,360.6h6.7c5.1,0,7.6,1.8,7.6,5.3c0,2.5-0.9,4.4-2.7,5.8c-1.8,1.4-4.3,2.1-7.5,2.1h-7.8c-3.5,0-5.8-1.4-7.1-4.1&#10;&#9;&#9;c-3,2.7-6,4.1-8.8,4.1h-6.9c-4.4,0-8-1.6-10.8-4.8c-2.7-3.2-4.1-7.3-4.1-12.4c0-7.8,2.7-14.7,8-20.8c5.4-6.1,11.4-9.2,18.1-9.2&#10;&#9;&#9;c5.2,0,8.9,1.8,11.3,5.4c2-3,4.7-4.5,7.9-4.5c1.8,0,3.3,0.6,4.5,1.7c1.2,1.1,1.8,2.5,1.8,4.2c0,1.1-0.3,2.5-1,4.1l-0.7,1.6&#10;&#9;&#9;L465.3,360.6z M443.4,360.9h1.5c3.3,0,5.5-1.4,6.6-4.1l4.2-10.5c0.6-1.4,0.8-2.5,0.8-3.5c0-1.1-0.5-2-1.6-2.8&#10;&#9;&#9;c-1.1-0.8-2.4-1.2-3.8-1.2c-2.9,0-5.8,1.7-8.6,5.1c-2.8,3.4-4.2,7-4.2,10.7C438.3,358.9,440,360.9,443.4,360.9z"/>
	<path d="M556.6,360.5h7.2c5.1,0,7.6,1.8,7.6,5.4c0,2.5-0.9,4.4-2.7,5.8c-1.8,1.4-4.3,2.1-7.5,2.1h-12.3c-2.7,0-4.8-0.7-6.5-2.1&#10;&#9;&#9;c-1.7-1.4-2.5-3.3-2.5-5.6c0-1.6,0.5-3.7,1.6-6.4l5.7-13.9c0.3-0.8,0.5-1.6,0.5-2.2c0-2.6-1.3-3.9-4-3.9c-2.1,0-4.1,0.9-6.1,2.8&#10;&#9;&#9;c-2,1.9-3.6,4.3-4.8,7.4l-6.8,16.7c-2.2,5.4-5.4,8.1-9.7,8.1c-1.7,0-3.1-0.5-4.2-1.6c-1.2-1.1-1.8-2.4-1.8-3.9&#10;&#9;&#9;c0-1.2,0.3-2.5,0.9-4.1l0.7-1.6l6.8-16.9c0.6-1.5,0.9-2.7,0.9-3.5c0-0.9-0.4-1.7-1.2-2.3c-0.8-0.7-1.8-1-2.8-1&#10;&#9;&#9;c-4.4,0-7.8,3.1-10.4,9.4l-7.1,17.4c-2.2,5.5-5.4,8.2-9.6,8.2c-1.7,0-3.1-0.5-4.3-1.6c-1.2-1.1-1.8-2.4-1.8-3.9&#10;&#9;&#9;c0-1.2,0.3-2.6,0.9-4.1l0.7-1.6l12.1-29.7c1.7-4.2,4.2-6.2,7.6-6.2c3.5,0,5.7,1.7,6.5,5c2.7-2.3,5-3.9,6.7-4.7&#10;&#9;&#9;c1.7-0.8,3.8-1.2,6.3-1.2c5.4,0,9.5,2.4,12.2,7.1c4.5-4.7,9.6-7.1,15.3-7.1c3.9,0,7.1,1.1,9.7,3.4c2.6,2.2,3.9,5,3.9,8.3&#10;&#9;&#9;c0,2.1-0.4,4.2-1.3,6.4L556.6,360.5z"/>
	<path d="M586.5,356.1c0,3,2.3,4.5,6.8,4.5h18c5.1,0,7.6,1.8,7.6,5.4c0,2.5-0.9,4.4-2.7,5.8c-1.8,1.4-4.3,2.1-7.5,2.1h-17.1&#10;&#9;&#9;c-6.4,0-11.2-1.6-14.6-4.7c-3.3-3.1-5-7.8-5-13.8c0-7.8,2.6-14.5,7.9-20.2c5.3-5.7,11.5-8.5,18.8-8.5c5.3,0,9.5,1.4,12.7,4.1&#10;&#9;&#9;c3.2,2.8,4.8,6.4,4.8,10.9c0,5.5-2.2,9.5-6.7,12.1c-2.5,1.5-6.1,2.2-11,2.2H586.5z M589.4,345.1h6.7c4.3,0,6.4-0.9,6.3-2.8&#10;&#9;&#9;c-0.1-2.1-1.5-3.2-4.2-3.2C594.5,339,591.5,341,589.4,345.1z"/>
	<path d="M641.4,344l-1.2,2.8c-1.8,4-4.3,6-7.6,6c-1.7,0-3.1-0.6-4.5-1.7c-1.3-1.2-2-2.5-2-4c0-1.4,0.6-3.3,1.8-5.6l8.1-16.4&#10;&#9;&#9;c2-3.9,4.4-5.9,7.4-5.9c1.6,0,2.9,0.5,4.1,1.5c1.1,1,1.7,2.3,1.7,3.7c0,0.4-0.1,1.2-0.4,2.4c-0.2,0.9-0.2,1.7-0.2,2.4&#10;&#9;&#9;c0,2.5,0.9,5.1,2.8,7.8l3.5,4.8c3.5,4.9,5.3,9.6,5.3,14.2c0,5.1-1.9,9.3-5.7,12.7c-3.8,3.4-8.5,5.1-14.2,5.1h-12.7&#10;&#9;&#9;c-5.1,0-7.7-1.8-7.7-5.3c0-2.5,0.9-4.4,2.7-5.8c1.8-1.4,4.3-2.1,7.5-2.1h7c5.6,0,8.4-2,8.4-6.1c0-1.5-0.5-3.2-1.6-5.3L641.4,344z"/>
</g>
</svg>