<?xml version="1.0" encoding="utf-8"?>
<!-- Generator: Adobe Illustrator 18.0.0, SVG Export Plug-In . SVG Version: 6.00 Build 0)  -->
<!DOCTYPE svg PUBLIC "-//W3C//DTD SVG 1.1//EN" "http://www.w3.org/Graphics/SVG/1.1/DTD/svg11.dtd">
<svg version="1.1" id="Layer_1" xmlns="http://www.w3.org/2000/svg" xmlns:xlink="http://www.w3.org/1999/xlink" x="0px" y="0px"
	 viewBox="0 0 600 600" enable-background="new 0 0 600 600" xml:space="preserve">
<g>
	<g id="XMLID_1_">
		<g>
			<path fill="#D0D2D4" d="M363.4,248.6l203.1-126.1c0,2.7-0.1,5.4-0.3,8L352.3,282.3h0L363.4,248.6z"/>
			<path fill="#ADAEB5" d="M352.3,282.3l213.8-151.8c-3.7,46.5-39.3,68.6-39.3,68.6l-193.3,140c1.3-1.5,1.9-3.7,2.1-6.4L352.3,282.3
				L352.3,282.3z"/>
			<path fill="#EBEBEB" d="M442.9,25.9l-79.5,222.7l-11.1,33.7l-16.6,50.4c1-14.9-12.5-43.8-12.5-43.8L436.7,28
				C440.6,26.4,442.9,25.9,442.9,25.9z"/>
			<path fill="#D0D2D4" d="M436.7,28L323.1,288.9c0,0,13.5,29,12.5,43.8l-2.1,6.4c-2.7,2.7-12.8,64.6-12.8,64.6
				c-4.2-3.9-12.2-5.8-19-6.8c-6.7-0.9-12.4-0.9-12.4-0.9c5.7-35.4-5.7-50.6-5.7-50.6c-4.2-18.6-14.8-32.3-14.8-32.3l7.3-13.7
				L381.5,80.9C402.1,45.9,425.7,32.6,436.7,28z"/>
			<path fill="#C44041" d="M301.7,396.9c6.8,1,14.8,2.9,19,6.8c3.8,1.5,2,2,2,2c-6,27.6,4,44.5,4,44.5c40,37.8,26.1,76.8,26.1,76.8
				c-17.5,58.6-73,54.6-73,54.6c-22.8-1.5-38.2-9.6-48.7-19.8v0c-35-83.6,26.3-113.1,26.3-113.1
				C288.3,441.3,301.7,396.9,301.7,396.9L301.7,396.9z"/>
			<path fill="#BA3B35" d="M301.7,396.9L301.7,396.9c0,0-13.4,44.4-44.2,51.7c0,0-61.3,29.5-26.3,113.1c-21.5-21-21.9-51-21.9-51
				c-1.3-50.4,44.9-69.9,44.9-69.9c34.7-27.2,29.4-44,29.4-44c2.7-0.9,5.7-0.9,5.7-0.9S294.9,395.9,301.7,396.9z"/>
			<path fill="#ADAEB5" d="M276,299.3l-7.3,13.7c0,0,10.6,13.7,14.8,32.3c-25.2-8.6-52.4,3.1-52.4,3.1c-0.7-3.3-1.9-6.5-3.3-9.6
				c-4.5-9.6-11.2-17.3-11.2-17.3L276,299.3z"/>
			<path fill="#BA3B35" d="M231.1,348.4c1.3,6.9,0,6.4,0,6.4c-30.3,16.6-46.9,59.9-46.9,59.9c-50.9,67.7-107.5,19-107.5,19
				c-1.6-1.4-3.1-2.8-4.6-4.2c74.2,37.3,109.5-29.7,109.5-29.7c8.5-33.4,46.2-61,46.2-61C229.2,341.9,230.4,345.1,231.1,348.4z"/>
			<path fill="#C44041" d="M216.6,321.5c0,0,6.7,7.7,11.2,17.3c0,0-37.7,27.6-46.2,61c0,0-35.3,67-109.5,29.7c0,0,0,0,0,0
				c-52.9-51.7-4.2-102.8-4.2-102.8c51.8-50.4,105-3.2,105-3.2h25.7c4.7-0.6,14-5.8,14-5.8C213.7,318.6,216.6,321.5,216.6,321.5z"/>
		</g>
		<g>
		</g>
	</g>
	<circle fill="#FFFFFF" cx="121.7" cy="377" r="41.7"/>
	<circle fill="#FFFFFF" cx="281.4" cy="508.4" r="41.7"/>
</g>
<g>
	<circle fill="#FFFFFF" stroke="#D5D4D6" stroke-width="1.3272" stroke-miterlimit="10" cx="307.2" cy="318.1" r="14.9"/>
	<path fill="#FFFFFF" stroke="#D5D4D6" stroke-width="1.3272" stroke-miterlimit="10" d="M308.2,309.3l-1.9,17.4 M299.1,316.6
		l16.3,2.8"/>
</g>
</svg>
